<mxfile host="app.diagrams.net" agent="Mozilla/5.0 (Macintosh; Intel Mac OS X 10_15_7) AppleWebKit/537.36 (KHTML, like Gecko) Chrome/134.0.0.0 Safari/537.36" version="26.1.1">
  <diagram id="PWarI2sp8aFkleMzvhMa" name="simulation">
    <mxGraphModel dx="3980" dy="2232" grid="1" gridSize="10" guides="1" tooltips="1" connect="1" arrows="1" fold="1" page="1" pageScale="1" pageWidth="1654" pageHeight="1169" math="0" shadow="0">
      <root>
        <mxCell id="0" />
        <mxCell id="1" parent="0" />
        <mxCell id="Wb_vQWrjdFvGsD8hYQh6-6" value="&lt;span style=&quot;background-color: light-dark(#ffffff, var(--ge-dark-color, #121212));&quot;&gt;__init__ (Digital Twin)&lt;/span&gt;" style="rounded=1;whiteSpace=wrap;html=1;fillColor=#e1d5e7;strokeColor=#9673a6;horizontal=0;verticalAlign=top;fontSize=21;" parent="1" vertex="1">
          <mxGeometry x="1160" y="50" width="1020" height="310" as="geometry" />
        </mxCell>
        <mxCell id="Wb_vQWrjdFvGsD8hYQh6-16" value="" style="edgeStyle=orthogonalEdgeStyle;rounded=0;orthogonalLoop=1;jettySize=auto;html=1;" parent="1" source="Wb_vQWrjdFvGsD8hYQh6-11" target="Wb_vQWrjdFvGsD8hYQh6-15" edge="1">
          <mxGeometry relative="1" as="geometry" />
        </mxCell>
        <mxCell id="Wb_vQWrjdFvGsD8hYQh6-11" value="&lt;p class=&quot;p1&quot;&gt;&lt;b&gt;Pygame Initialization&lt;/b&gt;&lt;/p&gt;" style="rounded=1;whiteSpace=wrap;html=1;" parent="1" vertex="1">
          <mxGeometry x="1210" y="165" width="120" height="45" as="geometry" />
        </mxCell>
        <mxCell id="Wb_vQWrjdFvGsD8hYQh6-12" value="&lt;p class=&quot;p1&quot;&gt;&lt;b&gt;Physics Parameters&lt;/b&gt;&lt;/p&gt;" style="rounded=1;whiteSpace=wrap;html=1;" parent="1" vertex="1">
          <mxGeometry x="1520" y="160" width="140" height="40" as="geometry" />
        </mxCell>
        <UserObject label="pygame.init()" link="&#xa;pygame.init()&#xa;&#xa;&#xa;" id="Wb_vQWrjdFvGsD8hYQh6-15">
          <mxCell style="whiteSpace=wrap;html=1;rounded=1;" parent="1" vertex="1">
            <mxGeometry x="1210" y="70" width="120" height="30" as="geometry" />
          </mxCell>
        </UserObject>
        <mxCell id="Wb_vQWrjdFvGsD8hYQh6-49" value="&lt;p class=&quot;p1&quot;&gt;&lt;b&gt;Motor State Initialization&lt;/b&gt;&lt;/p&gt;" style="rounded=1;whiteSpace=wrap;html=1;" parent="1" vertex="1">
          <mxGeometry x="1680" y="160" width="170" height="40" as="geometry" />
        </mxCell>
        <mxCell id="Wb_vQWrjdFvGsD8hYQh6-50" value="&lt;p class=&quot;p1&quot;&gt;&lt;b&gt;Serial Communication Setup&lt;/b&gt;&lt;/p&gt;" style="rounded=1;whiteSpace=wrap;html=1;" parent="1" vertex="1">
          <mxGeometry x="1340" y="162.5" width="160" height="50" as="geometry" />
        </mxCell>
        <mxCell id="Wb_vQWrjdFvGsD8hYQh6-51" value="&lt;p class=&quot;p1&quot;&gt;&lt;b&gt;Recording &amp;amp; Data Handling&lt;/b&gt;&lt;/p&gt;" style="rounded=1;whiteSpace=wrap;html=1;" parent="1" vertex="1">
          <mxGeometry x="2030" y="153.75" width="120" height="52.5" as="geometry" />
        </mxCell>
        <mxCell id="Wb_vQWrjdFvGsD8hYQh6-53" value="&lt;p class=&quot;p1&quot;&gt;&lt;b&gt;Action Configuration (User Inputs)&lt;/b&gt;&lt;/p&gt;" style="rounded=1;whiteSpace=wrap;html=1;" parent="1" vertex="1">
          <mxGeometry x="1870" y="155" width="140" height="50" as="geometry" />
        </mxCell>
        <mxCell id="Wb_vQWrjdFvGsD8hYQh6-57" value="" style="edgeStyle=orthogonalEdgeStyle;rounded=0;orthogonalLoop=1;jettySize=auto;html=1;entryX=0.5;entryY=0;entryDx=0;entryDy=0;exitX=0.5;exitY=0;exitDx=0;exitDy=0;" parent="1" source="Wb_vQWrjdFvGsD8hYQh6-56" target="m0a015RU4agY2CrLpM0k-13" edge="1">
          <mxGeometry relative="1" as="geometry" />
        </mxCell>
        <mxCell id="Wb_vQWrjdFvGsD8hYQh6-56" value="start" style="ellipse;whiteSpace=wrap;html=1;" parent="1" vertex="1">
          <mxGeometry x="2590" y="200" width="90" height="60" as="geometry" />
        </mxCell>
        <mxCell id="Wb_vQWrjdFvGsD8hYQh6-61" style="edgeStyle=orthogonalEdgeStyle;rounded=0;orthogonalLoop=1;jettySize=auto;html=1;" parent="1" source="Wb_vQWrjdFvGsD8hYQh6-59" target="Wb_vQWrjdFvGsD8hYQh6-11" edge="1">
          <mxGeometry relative="1" as="geometry" />
        </mxCell>
        <mxCell id="Wb_vQWrjdFvGsD8hYQh6-62" style="edgeStyle=orthogonalEdgeStyle;rounded=0;orthogonalLoop=1;jettySize=auto;html=1;" parent="1" source="Wb_vQWrjdFvGsD8hYQh6-59" target="Wb_vQWrjdFvGsD8hYQh6-50" edge="1">
          <mxGeometry relative="1" as="geometry" />
        </mxCell>
        <mxCell id="Wb_vQWrjdFvGsD8hYQh6-64" value="" style="edgeStyle=orthogonalEdgeStyle;rounded=0;orthogonalLoop=1;jettySize=auto;html=1;" parent="1" source="Wb_vQWrjdFvGsD8hYQh6-59" target="Wb_vQWrjdFvGsD8hYQh6-12" edge="1">
          <mxGeometry relative="1" as="geometry" />
        </mxCell>
        <mxCell id="Wb_vQWrjdFvGsD8hYQh6-65" style="edgeStyle=orthogonalEdgeStyle;rounded=0;orthogonalLoop=1;jettySize=auto;html=1;" parent="1" source="Wb_vQWrjdFvGsD8hYQh6-59" target="Wb_vQWrjdFvGsD8hYQh6-49" edge="1">
          <mxGeometry relative="1" as="geometry" />
        </mxCell>
        <mxCell id="Wb_vQWrjdFvGsD8hYQh6-66" style="edgeStyle=orthogonalEdgeStyle;rounded=0;orthogonalLoop=1;jettySize=auto;html=1;" parent="1" source="Wb_vQWrjdFvGsD8hYQh6-59" target="Wb_vQWrjdFvGsD8hYQh6-51" edge="1">
          <mxGeometry relative="1" as="geometry" />
        </mxCell>
        <mxCell id="Wb_vQWrjdFvGsD8hYQh6-67" style="edgeStyle=orthogonalEdgeStyle;rounded=0;orthogonalLoop=1;jettySize=auto;html=1;" parent="1" source="Wb_vQWrjdFvGsD8hYQh6-59" target="Wb_vQWrjdFvGsD8hYQh6-53" edge="1">
          <mxGeometry relative="1" as="geometry" />
        </mxCell>
        <mxCell id="Wb_vQWrjdFvGsD8hYQh6-86" style="edgeStyle=orthogonalEdgeStyle;rounded=0;orthogonalLoop=1;jettySize=auto;html=1;" parent="1" source="Wb_vQWrjdFvGsD8hYQh6-59" edge="1">
          <mxGeometry relative="1" as="geometry">
            <mxPoint x="1610" y="430" as="targetPoint" />
          </mxGeometry>
        </mxCell>
        <mxCell id="Wb_vQWrjdFvGsD8hYQh6-184" value="Initialize" style="edgeLabel;html=1;align=center;verticalAlign=middle;resizable=0;points=[];" parent="Wb_vQWrjdFvGsD8hYQh6-86" vertex="1" connectable="0">
          <mxGeometry x="0.2197" y="-1" relative="1" as="geometry">
            <mxPoint as="offset" />
          </mxGeometry>
        </mxCell>
        <mxCell id="Wb_vQWrjdFvGsD8hYQh6-59" value="&lt;p class=&quot;p1&quot;&gt;&lt;b&gt;Initialize Digital Twin&lt;/b&gt;&lt;/p&gt;" style="rounded=1;whiteSpace=wrap;html=1;" parent="1" vertex="1">
          <mxGeometry x="1530" y="280" width="160" height="45" as="geometry" />
        </mxCell>
        <mxCell id="Wb_vQWrjdFvGsD8hYQh6-83" value="&lt;span style=&quot;background-color: light-dark(#ffffff, var(--ge-dark-color, #121212));&quot;&gt;Digital Twin&lt;/span&gt;" style="rounded=1;whiteSpace=wrap;html=1;align=center;horizontal=0;verticalAlign=top;fillColor=#dae8fc;strokeColor=#6c8ebf;fontSize=20;movable=0;resizable=0;rotatable=0;deletable=0;editable=0;locked=1;connectable=0;" parent="1" vertex="1">
          <mxGeometry x="1150" y="430" width="1540" height="910" as="geometry" />
        </mxCell>
        <mxCell id="Wb_vQWrjdFvGsD8hYQh6-92" value="" style="group" parent="1" vertex="1" connectable="0">
          <mxGeometry x="2040" y="450" width="270" height="403" as="geometry" />
        </mxCell>
        <mxCell id="Wb_vQWrjdFvGsD8hYQh6-69" value="&lt;span style=&quot;background-color: light-dark(#ffffff, var(--ge-dark-color, #121212));&quot;&gt;Visualizations&lt;/span&gt;&lt;div&gt;&lt;span style=&quot;background-color: light-dark(#ffffff, var(--ge-dark-color, #121212));&quot;&gt;Render()&lt;/span&gt;&lt;/div&gt;" style="rounded=1;whiteSpace=wrap;html=1;align=center;horizontal=0;verticalAlign=top;fillColor=#d5e8d4;strokeColor=#82b366;fontSize=20;" parent="Wb_vQWrjdFvGsD8hYQh6-92" vertex="1">
          <mxGeometry width="270" height="320.625" as="geometry" />
        </mxCell>
        <mxCell id="Wb_vQWrjdFvGsD8hYQh6-79" style="edgeStyle=orthogonalEdgeStyle;rounded=0;orthogonalLoop=1;jettySize=auto;html=1;entryX=0.5;entryY=0;entryDx=0;entryDy=0;" parent="Wb_vQWrjdFvGsD8hYQh6-92" source="Wb_vQWrjdFvGsD8hYQh6-70" target="Wb_vQWrjdFvGsD8hYQh6-72" edge="1">
          <mxGeometry relative="1" as="geometry" />
        </mxCell>
        <mxCell id="Wb_vQWrjdFvGsD8hYQh6-70" value="&lt;p class=&quot;p1&quot;&gt;&lt;span&gt;draw_grid()&lt;/span&gt;&lt;/p&gt;" style="rounded=1;whiteSpace=wrap;html=1;fontStyle=0" parent="Wb_vQWrjdFvGsD8hYQh6-92" vertex="1">
          <mxGeometry x="91.80000000000001" y="23.750000000000004" width="113.4" height="35.625" as="geometry" />
        </mxCell>
        <mxCell id="Wb_vQWrjdFvGsD8hYQh6-80" style="edgeStyle=orthogonalEdgeStyle;rounded=0;orthogonalLoop=1;jettySize=auto;html=1;entryX=0.5;entryY=0;entryDx=0;entryDy=0;" parent="Wb_vQWrjdFvGsD8hYQh6-92" source="Wb_vQWrjdFvGsD8hYQh6-72" target="Wb_vQWrjdFvGsD8hYQh6-73" edge="1">
          <mxGeometry relative="1" as="geometry" />
        </mxCell>
        <mxCell id="Wb_vQWrjdFvGsD8hYQh6-72" value="&lt;p class=&quot;p1&quot;&gt;&lt;span&gt;draw_pendulum(&lt;/span&gt;&lt;span style=&quot;background-color: rgb(247, 247, 247); color: rgb(63, 63, 63); font-family: &amp;quot;Times New Roman&amp;quot;, &amp;quot;GFS Didot&amp;quot;, STIXGeneral, serif; font-size: 16px; text-align: left;&quot;&gt;𝜃,L=0.5&lt;/span&gt;&lt;span style=&quot;background-color: transparent; color: light-dark(rgb(0, 0, 0), rgb(255, 255, 255));&quot;&gt;)&lt;/span&gt;&lt;/p&gt;" style="rounded=1;whiteSpace=wrap;html=1;fontStyle=0" parent="Wb_vQWrjdFvGsD8hYQh6-92" vertex="1">
          <mxGeometry x="62.1" y="100.34375000000001" width="172.8" height="33.25" as="geometry" />
        </mxCell>
        <mxCell id="Wb_vQWrjdFvGsD8hYQh6-82" style="edgeStyle=orthogonalEdgeStyle;rounded=0;orthogonalLoop=1;jettySize=auto;html=1;" parent="Wb_vQWrjdFvGsD8hYQh6-92" source="Wb_vQWrjdFvGsD8hYQh6-73" target="Wb_vQWrjdFvGsD8hYQh6-81" edge="1">
          <mxGeometry relative="1" as="geometry" />
        </mxCell>
        <mxCell id="Wb_vQWrjdFvGsD8hYQh6-73" value="&lt;p style=&quot;text-align: left;&quot; class=&quot;p1&quot;&gt;&lt;span&gt;draw_indicators(&lt;/span&gt;&lt;font face=&quot;Times New Roman, GFS Didot, STIXGeneral, serif&quot; color=&quot;#3f3f3f&quot;&gt;&lt;span style=&quot;font-size: 16px; background-color: rgb(247, 247, 247);&quot;&gt;𝜃,&lt;/span&gt;&lt;/font&gt;&amp;nbsp;&lt;img style=&quot;color: rgb(63, 63, 63); font-family: &amp;quot;Work Sans&amp;quot;, Helvetica, Arial, sans-serif; font-size: 16px; background-color: rgb(223, 223, 223);&quot; alt=&quot;theta dot&quot; src=&quot;https://help.cengage.com/webassign/instructor_guide/webassign/images/stag/lc-thetadot.gif&quot; class=&quot;image&quot;&gt;&lt;span style=&quot;background-color: transparent; color: light-dark(rgb(0, 0, 0), rgb(255, 255, 255));&quot;&gt;)&lt;/span&gt;&lt;/p&gt;" style="rounded=1;whiteSpace=wrap;html=1;fontStyle=0" parent="Wb_vQWrjdFvGsD8hYQh6-92" vertex="1">
          <mxGeometry x="83.7" y="175.38796474358978" width="140.4" height="29.23076923076923" as="geometry" />
        </mxCell>
        <mxCell id="Wb_vQWrjdFvGsD8hYQh6-81" value="&lt;p class=&quot;p1&quot;&gt;draw_info_panel(&lt;font style=&quot;background-color: transparent; text-align: left;&quot; face=&quot;Times New Roman, GFS Didot, STIXGeneral, serif&quot;&gt;&lt;span style=&quot;font-size: 16px; background-color: rgb(247, 247, 247);&quot;&gt;𝜃,&lt;/span&gt;&lt;/font&gt;&lt;span style=&quot;background-color: transparent; color: light-dark(rgb(0, 0, 0), rgb(255, 255, 255)); text-align: left;&quot;&gt;&amp;nbsp;&lt;/span&gt;&lt;img style=&quot;text-align: left; color: rgb(63, 63, 63); font-family: &amp;quot;Work Sans&amp;quot;, Helvetica, Arial, sans-serif; font-size: 16px; background-color: rgb(223, 223, 223);&quot; alt=&quot;theta dot&quot; src=&quot;https://help.cengage.com/webassign/instructor_guide/webassign/images/stag/lc-thetadot.gif&quot; class=&quot;image&quot;&gt;,x_pivot&lt;span style=&quot;background-color: transparent; color: light-dark(rgb(0, 0, 0), rgb(255, 255, 255));&quot;&gt;)&lt;/span&gt;&lt;/p&gt;" style="rounded=1;whiteSpace=wrap;html=1;fontStyle=0" parent="Wb_vQWrjdFvGsD8hYQh6-92" vertex="1">
          <mxGeometry x="54" y="249.37500000000003" width="189" height="35.625" as="geometry" />
        </mxCell>
        <mxCell id="m0a015RU4agY2CrLpM0k-43" value="" style="edgeStyle=orthogonalEdgeStyle;rounded=0;orthogonalLoop=1;jettySize=auto;html=1;" edge="1" parent="Wb_vQWrjdFvGsD8hYQh6-92" target="m0a015RU4agY2CrLpM0k-26">
          <mxGeometry relative="1" as="geometry">
            <mxPoint x="149" y="320" as="sourcePoint" />
          </mxGeometry>
        </mxCell>
        <mxCell id="m0a015RU4agY2CrLpM0k-26" value="&lt;div style=&quot;line-height: 50%;&quot;&gt;&lt;p class=&quot;p1&quot;&gt;&lt;font style=&quot;font-size: 17px;&quot;&gt;Sleep&lt;/font&gt;&lt;/p&gt;&lt;/div&gt;" style="rounded=1;whiteSpace=wrap;html=1;fontStyle=0" vertex="1" parent="Wb_vQWrjdFvGsD8hYQh6-92">
          <mxGeometry x="74.10000000000001" y="360" width="150" height="43" as="geometry" />
        </mxCell>
        <mxCell id="Wb_vQWrjdFvGsD8hYQh6-102" value="" style="ellipse;whiteSpace=wrap;html=1;aspect=fixed;fillColor=#eeeeee;strokeColor=#36393d;" parent="1" vertex="1">
          <mxGeometry x="2510" y="690.5" width="27" height="27" as="geometry" />
        </mxCell>
        <mxCell id="Wb_vQWrjdFvGsD8hYQh6-103" value="" style="endArrow=none;html=1;rounded=0;exitX=0.5;exitY=0;exitDx=0;exitDy=0;strokeWidth=5;entryX=0.5;entryY=1;entryDx=0;entryDy=0;curved=1;" parent="1" source="Wb_vQWrjdFvGsD8hYQh6-102" target="Wb_vQWrjdFvGsD8hYQh6-104" edge="1">
          <mxGeometry width="50" height="50" relative="1" as="geometry">
            <mxPoint x="2502" y="614.5" as="sourcePoint" />
            <mxPoint x="2539.2" y="622.25" as="targetPoint" />
          </mxGeometry>
        </mxCell>
        <mxCell id="Wb_vQWrjdFvGsD8hYQh6-104" value="" style="rounded=1;whiteSpace=wrap;html=1;" parent="1" vertex="1">
          <mxGeometry x="2521" y="552.5" width="35" height="20" as="geometry" />
        </mxCell>
        <mxCell id="Wb_vQWrjdFvGsD8hYQh6-230" style="edgeStyle=orthogonalEdgeStyle;rounded=0;orthogonalLoop=1;jettySize=auto;html=1;entryX=0;entryY=0.5;entryDx=0;entryDy=0;exitX=0.5;exitY=1;exitDx=0;exitDy=0;" parent="1" source="Wb_vQWrjdFvGsD8hYQh6-119" target="Wb_vQWrjdFvGsD8hYQh6-229" edge="1">
          <mxGeometry relative="1" as="geometry" />
        </mxCell>
        <mxCell id="Wb_vQWrjdFvGsD8hYQh6-119" value="&lt;font style=&quot;font-size: 15px;&quot;&gt;event?&lt;/font&gt;" style="rhombus;whiteSpace=wrap;html=1;" parent="1" vertex="1">
          <mxGeometry x="1700" y="800" width="142.5" height="150" as="geometry" />
        </mxCell>
        <mxCell id="Wb_vQWrjdFvGsD8hYQh6-134" value="" style="group" parent="1" vertex="1" connectable="0">
          <mxGeometry x="1310" y="480" width="680" height="310" as="geometry" />
        </mxCell>
        <mxCell id="Wb_vQWrjdFvGsD8hYQh6-93" value="&lt;span style=&quot;background-color: light-dark(#ffffff, var(--ge-dark-color, #121212));&quot;&gt;Step()&lt;/span&gt;" style="rounded=1;whiteSpace=wrap;html=1;fillColor=#f8cecc;strokeColor=#b85450;horizontal=0;verticalAlign=top;fontSize=21;opacity=80;" parent="Wb_vQWrjdFvGsD8hYQh6-134" vertex="1">
          <mxGeometry x="110" y="-11.07" width="560.89" height="310" as="geometry" />
        </mxCell>
        <mxCell id="Wb_vQWrjdFvGsD8hYQh6-200" style="edgeStyle=orthogonalEdgeStyle;rounded=0;orthogonalLoop=1;jettySize=auto;html=1;entryX=0;entryY=0.5;entryDx=0;entryDy=0;" parent="Wb_vQWrjdFvGsD8hYQh6-134" source="Wb_vQWrjdFvGsD8hYQh6-88" target="Wb_vQWrjdFvGsD8hYQh6-188" edge="1">
          <mxGeometry relative="1" as="geometry" />
        </mxCell>
        <mxCell id="Wb_vQWrjdFvGsD8hYQh6-88" value="&lt;div style=&quot;line-height: 50%;&quot;&gt;&lt;p class=&quot;p1&quot;&gt;&lt;span style=&quot;background-color: transparent; color: light-dark(rgb(0, 0, 0), rgb(255, 255, 255));&quot;&gt;&lt;b&gt;&amp;nbsp;&lt;/b&gt;&lt;/span&gt;&lt;span style=&quot;background-color: transparent; color: light-dark(rgb(0, 0, 0), rgb(255, 255, 255));&quot;&gt;check_prediction_lists()&amp;nbsp;&lt;/span&gt;&lt;/p&gt;&lt;/div&gt;" style="rounded=1;whiteSpace=wrap;html=1;fontStyle=0" parent="Wb_vQWrjdFvGsD8hYQh6-134" vertex="1">
          <mxGeometry x="170" y="34" width="173.57" height="40.62" as="geometry" />
        </mxCell>
        <mxCell id="m0a015RU4agY2CrLpM0k-46" style="edgeStyle=orthogonalEdgeStyle;rounded=0;orthogonalLoop=1;jettySize=auto;html=1;entryX=1;entryY=0.5;entryDx=0;entryDy=0;" edge="1" parent="Wb_vQWrjdFvGsD8hYQh6-134" source="Wb_vQWrjdFvGsD8hYQh6-89" target="Wb_vQWrjdFvGsD8hYQh6-198">
          <mxGeometry relative="1" as="geometry" />
        </mxCell>
        <mxCell id="Wb_vQWrjdFvGsD8hYQh6-89" value="&lt;div style=&quot;line-height: 50%;&quot;&gt;&lt;p class=&quot;p1&quot;&gt;&lt;font style=&quot;font-size: 14px;&quot;&gt;&lt;span style=&quot;background-color: transparent; color: light-dark(rgb(0, 0, 0), rgb(255, 255, 255));&quot;&gt;&lt;b style=&quot;&quot;&gt;&amp;nbsp;&lt;/b&gt;&lt;/span&gt;&lt;span style=&quot;background-color: transparent; color: light-dark(rgb(0, 0, 0), rgb(255, 255, 255));&quot;&gt;get_theta_double_dot()&lt;/span&gt;&lt;/font&gt;&lt;/p&gt;&lt;/div&gt;" style="rounded=1;whiteSpace=wrap;html=1;fontStyle=0" parent="Wb_vQWrjdFvGsD8hYQh6-134" vertex="1">
          <mxGeometry x="470" y="212.5" width="171.43" height="50" as="geometry" />
        </mxCell>
        <mxCell id="Wb_vQWrjdFvGsD8hYQh6-195" value="" style="edgeStyle=orthogonalEdgeStyle;rounded=0;orthogonalLoop=1;jettySize=auto;html=1;" parent="Wb_vQWrjdFvGsD8hYQh6-134" source="Wb_vQWrjdFvGsD8hYQh6-188" target="Wb_vQWrjdFvGsD8hYQh6-89" edge="1">
          <mxGeometry relative="1" as="geometry" />
        </mxCell>
        <mxCell id="Wb_vQWrjdFvGsD8hYQh6-202" style="edgeStyle=orthogonalEdgeStyle;rounded=0;orthogonalLoop=1;jettySize=auto;html=1;entryX=1;entryY=0.5;entryDx=0;entryDy=0;" parent="Wb_vQWrjdFvGsD8hYQh6-134" source="Wb_vQWrjdFvGsD8hYQh6-188" target="Wb_vQWrjdFvGsD8hYQh6-201" edge="1">
          <mxGeometry relative="1" as="geometry">
            <Array as="points">
              <mxPoint x="520" y="144" />
            </Array>
          </mxGeometry>
        </mxCell>
        <mxCell id="Wb_vQWrjdFvGsD8hYQh6-188" value="&lt;div style=&quot;line-height: 50%;&quot;&gt;&lt;p class=&quot;p1&quot;&gt;&lt;span style=&quot;background-color: transparent; color: light-dark(rgb(0, 0, 0), rgb(255, 255, 255));&quot;&gt;Update Motor State()&amp;nbsp;&lt;/span&gt;&lt;/p&gt;&lt;p class=&quot;p1&quot;&gt;&lt;span style=&quot;background-color: transparent; color: light-dark(rgb(0, 0, 0), rgb(255, 255, 255));&quot;&gt;current_motor_accelearion()&lt;/span&gt;&lt;/p&gt;&lt;p class=&quot;p1&quot;&gt;&lt;span style=&quot;background-color: transparent; color: light-dark(rgb(0, 0, 0), rgb(255, 255, 255));&quot;&gt;current_motor_velocity()&lt;/span&gt;&lt;/p&gt;&lt;p class=&quot;p1&quot;&gt;&lt;span style=&quot;background-color: transparent; color: light-dark(rgb(0, 0, 0), rgb(255, 255, 255));&quot;&gt;x_pivot&lt;/span&gt;&lt;/p&gt;&lt;/div&gt;" style="rounded=1;whiteSpace=wrap;html=1;fontStyle=0" parent="Wb_vQWrjdFvGsD8hYQh6-134" vertex="1">
          <mxGeometry x="460" y="34" width="189.65" height="86" as="geometry" />
        </mxCell>
        <mxCell id="Wb_vQWrjdFvGsD8hYQh6-198" value="Update Theta dot" style="whiteSpace=wrap;html=1;rounded=1;fontStyle=0;" parent="Wb_vQWrjdFvGsD8hYQh6-134" vertex="1">
          <mxGeometry x="224" y="240" width="120" height="32.5" as="geometry" />
        </mxCell>
        <mxCell id="Wb_vQWrjdFvGsD8hYQh6-196" value="&lt;div style=&quot;text-align: left;&quot;&gt;&lt;span style=&quot;color: light-dark(rgb(0, 0, 0), rgb(255, 255, 255)); font-size: 16px; background-color: rgb(247, 247, 247);&quot;&gt;&lt;font face=&quot;Times New Roman, GFS Didot, STIXGeneral, serif&quot;&gt;Update Theta&lt;/font&gt;&lt;/span&gt;&lt;/div&gt;" style="whiteSpace=wrap;html=1;rounded=1;fontStyle=0;" parent="Wb_vQWrjdFvGsD8hYQh6-134" vertex="1">
          <mxGeometry x="224" y="180" width="120" height="32.5" as="geometry" />
        </mxCell>
        <mxCell id="Wb_vQWrjdFvGsD8hYQh6-197" value="" style="edgeStyle=orthogonalEdgeStyle;rounded=0;orthogonalLoop=1;jettySize=auto;html=1;" parent="Wb_vQWrjdFvGsD8hYQh6-134" source="Wb_vQWrjdFvGsD8hYQh6-89" target="Wb_vQWrjdFvGsD8hYQh6-196" edge="1">
          <mxGeometry relative="1" as="geometry" />
        </mxCell>
        <mxCell id="Wb_vQWrjdFvGsD8hYQh6-201" value="&lt;div style=&quot;text-align: left;&quot;&gt;Update X_pivot&lt;/div&gt;" style="whiteSpace=wrap;html=1;rounded=1;fontStyle=0;" parent="Wb_vQWrjdFvGsD8hYQh6-134" vertex="1">
          <mxGeometry x="170" y="127.68" width="173.99" height="32.5" as="geometry" />
        </mxCell>
        <mxCell id="Wb_vQWrjdFvGsD8hYQh6-170" style="edgeStyle=orthogonalEdgeStyle;rounded=0;orthogonalLoop=1;jettySize=auto;html=1;entryX=0.5;entryY=1;entryDx=0;entryDy=0;" parent="1" edge="1">
          <mxGeometry relative="1" as="geometry">
            <mxPoint x="2460" y="1000" as="targetPoint" />
          </mxGeometry>
        </mxCell>
        <mxCell id="Wb_vQWrjdFvGsD8hYQh6-214" value="" style="group" parent="1" vertex="1" connectable="0">
          <mxGeometry x="1215" y="1000" width="1460" height="680" as="geometry" />
        </mxCell>
        <mxCell id="Wb_vQWrjdFvGsD8hYQh6-208" value="" style="group" parent="Wb_vQWrjdFvGsD8hYQh6-214" vertex="1" connectable="0">
          <mxGeometry width="1460" height="680" as="geometry" />
        </mxCell>
        <mxCell id="Wb_vQWrjdFvGsD8hYQh6-131" value="&lt;span style=&quot;background-color: light-dark(#ffffff, var(--ge-dark-color, #121212));&quot;&gt;Action Handling&lt;/span&gt;" style="rounded=1;whiteSpace=wrap;html=1;fillColor=#fff2cc;strokeColor=#d6b656;horizontal=0;verticalAlign=top;fontSize=21;opacity=80;" parent="Wb_vQWrjdFvGsD8hYQh6-208" vertex="1">
          <mxGeometry width="1410" height="300" as="geometry" />
        </mxCell>
        <mxCell id="Wb_vQWrjdFvGsD8hYQh6-137" value="&lt;div style=&quot;line-height: 50%;&quot;&gt;&lt;p class=&quot;p1&quot;&gt;&lt;span style=&quot;font-size: 17px; line-height: 120%;&quot;&gt;perform_action(direction,duration)&lt;/span&gt;&lt;/p&gt;&lt;/div&gt;" style="rounded=1;whiteSpace=wrap;html=1;fontStyle=0" parent="Wb_vQWrjdFvGsD8hYQh6-208" vertex="1">
          <mxGeometry x="545" y="13.5" width="271.96" height="43" as="geometry" />
        </mxCell>
        <mxCell id="Wb_vQWrjdFvGsD8hYQh6-207" value="" style="group" parent="Wb_vQWrjdFvGsD8hYQh6-208" vertex="1" connectable="0">
          <mxGeometry x="50.000000000000014" y="70" width="1320" height="470" as="geometry" />
        </mxCell>
        <mxCell id="Wb_vQWrjdFvGsD8hYQh6-142" value="&lt;span style=&quot;background-color: rgb(255, 255, 255);&quot;&gt;Motor&amp;nbsp;&lt;/span&gt;&lt;span style=&quot;background-color: light-dark(rgb(255, 255, 255), rgb(18, 18, 18)); color: light-dark(rgb(0, 0, 0), rgb(255, 255, 255));&quot;&gt;Model&lt;/span&gt;&lt;div&gt;&lt;div style=&quot;font-family: Menlo, Monaco, &amp;quot;Courier New&amp;quot;, monospace; line-height: 18px; white-space: pre;&quot;&gt;&lt;font style=&quot;color: rgb(31, 31, 31); background-color: rgb(255, 255, 255); font-size: 14px;&quot;&gt;update_motor_accelerations()&lt;/font&gt;&lt;/div&gt;&lt;/div&gt;" style="rounded=1;whiteSpace=wrap;html=1;fillColor=#ffe6cc;strokeColor=#d79b00;horizontal=0;verticalAlign=top;fontSize=21;opacity=80;" parent="Wb_vQWrjdFvGsD8hYQh6-207" vertex="1">
          <mxGeometry y="10" width="1320" height="170" as="geometry" />
        </mxCell>
        <mxCell id="Wb_vQWrjdFvGsD8hYQh6-144" value="&lt;div style=&quot;line-height: 50%;&quot;&gt;&lt;p class=&quot;p1&quot;&gt;&lt;span style=&quot;font-size: 17px; line-height: 140%;&quot;&gt;Calculate Motor Accelerations()&lt;/span&gt;&lt;/p&gt;&lt;/div&gt;" style="rounded=1;whiteSpace=wrap;html=1;fontStyle=0" parent="Wb_vQWrjdFvGsD8hYQh6-207" vertex="1">
          <mxGeometry x="59.999999999999986" y="60.5" width="279.58" height="69" as="geometry" />
        </mxCell>
        <mxCell id="Wb_vQWrjdFvGsD8hYQh6-145" value="&lt;font style=&quot;font-size: 18px;&quot;&gt;future_motor_accelerations&lt;/font&gt;" style="whiteSpace=wrap;html=1;rounded=1;fontStyle=0;" parent="Wb_vQWrjdFvGsD8hYQh6-207" vertex="1">
          <mxGeometry x="410" y="60.5" width="250" height="70" as="geometry" />
        </mxCell>
        <mxCell id="Wb_vQWrjdFvGsD8hYQh6-146" value="" style="edgeStyle=orthogonalEdgeStyle;rounded=0;orthogonalLoop=1;jettySize=auto;html=1;" parent="Wb_vQWrjdFvGsD8hYQh6-207" source="Wb_vQWrjdFvGsD8hYQh6-144" target="Wb_vQWrjdFvGsD8hYQh6-145" edge="1">
          <mxGeometry relative="1" as="geometry" />
        </mxCell>
        <mxCell id="Wb_vQWrjdFvGsD8hYQh6-177" value="Updates" style="edgeLabel;html=1;align=center;verticalAlign=middle;resizable=0;points=[];" parent="Wb_vQWrjdFvGsD8hYQh6-146" vertex="1" connectable="0">
          <mxGeometry x="-0.1453" y="-1" relative="1" as="geometry">
            <mxPoint as="offset" />
          </mxGeometry>
        </mxCell>
        <mxCell id="Wb_vQWrjdFvGsD8hYQh6-149" value="&lt;font style=&quot;font-size: 18px;&quot;&gt;future_motor_velocities()&lt;/font&gt;" style="whiteSpace=wrap;html=1;rounded=1;fontStyle=0;" parent="Wb_vQWrjdFvGsD8hYQh6-207" vertex="1">
          <mxGeometry x="729.9961066666666" y="59" width="282.5392" height="70" as="geometry" />
        </mxCell>
        <mxCell id="Wb_vQWrjdFvGsD8hYQh6-173" value="" style="edgeStyle=orthogonalEdgeStyle;rounded=0;orthogonalLoop=1;jettySize=auto;html=1;" parent="Wb_vQWrjdFvGsD8hYQh6-207" source="Wb_vQWrjdFvGsD8hYQh6-145" target="Wb_vQWrjdFvGsD8hYQh6-149" edge="1">
          <mxGeometry relative="1" as="geometry" />
        </mxCell>
        <mxCell id="Wb_vQWrjdFvGsD8hYQh6-178" value="Updates" style="edgeLabel;html=1;align=center;verticalAlign=middle;resizable=0;points=[];" parent="Wb_vQWrjdFvGsD8hYQh6-173" vertex="1" connectable="0">
          <mxGeometry x="-0.2577" relative="1" as="geometry">
            <mxPoint as="offset" />
          </mxGeometry>
        </mxCell>
        <mxCell id="Wb_vQWrjdFvGsD8hYQh6-151" value="&lt;font style=&quot;font-size: 18px;&quot;&gt;future_motor_positions()&lt;/font&gt;" style="whiteSpace=wrap;html=1;rounded=1;fontStyle=0;" parent="Wb_vQWrjdFvGsD8hYQh6-207" vertex="1">
          <mxGeometry x="1059.996666666667" y="59" width="241.9" height="70" as="geometry" />
        </mxCell>
        <mxCell id="Wb_vQWrjdFvGsD8hYQh6-174" value="" style="edgeStyle=orthogonalEdgeStyle;rounded=0;orthogonalLoop=1;jettySize=auto;html=1;" parent="Wb_vQWrjdFvGsD8hYQh6-207" source="Wb_vQWrjdFvGsD8hYQh6-149" target="Wb_vQWrjdFvGsD8hYQh6-151" edge="1">
          <mxGeometry relative="1" as="geometry" />
        </mxCell>
        <mxCell id="Wb_vQWrjdFvGsD8hYQh6-179" value="Updates" style="edgeLabel;html=1;align=center;verticalAlign=middle;resizable=0;points=[];" parent="Wb_vQWrjdFvGsD8hYQh6-174" vertex="1" connectable="0">
          <mxGeometry x="-0.4378" y="-1" relative="1" as="geometry">
            <mxPoint y="5" as="offset" />
          </mxGeometry>
        </mxCell>
        <mxCell id="Wb_vQWrjdFvGsD8hYQh6-224" style="edgeStyle=orthogonalEdgeStyle;rounded=0;orthogonalLoop=1;jettySize=auto;html=1;entryX=0.478;entryY=0.001;entryDx=0;entryDy=0;entryPerimeter=0;" parent="Wb_vQWrjdFvGsD8hYQh6-208" source="Wb_vQWrjdFvGsD8hYQh6-137" target="Wb_vQWrjdFvGsD8hYQh6-142" edge="1">
          <mxGeometry relative="1" as="geometry" />
        </mxCell>
        <mxCell id="Wb_vQWrjdFvGsD8hYQh6-227" style="edgeStyle=orthogonalEdgeStyle;rounded=0;orthogonalLoop=1;jettySize=auto;html=1;exitX=0;exitY=0.5;exitDx=0;exitDy=0;" parent="1" source="Wb_vQWrjdFvGsD8hYQh6-119" edge="1">
          <mxGeometry relative="1" as="geometry">
            <mxPoint x="1740" y="860" as="sourcePoint" />
            <mxPoint x="1680" y="1000" as="targetPoint" />
          </mxGeometry>
        </mxCell>
        <mxCell id="Wb_vQWrjdFvGsD8hYQh6-228" value="A, S, D, F, J, K, L, :" style="edgeLabel;html=1;align=center;verticalAlign=middle;resizable=0;points=[];fontSize=15;" parent="Wb_vQWrjdFvGsD8hYQh6-227" vertex="1" connectable="0">
          <mxGeometry x="-0.2452" y="-1" relative="1" as="geometry">
            <mxPoint x="1" y="31" as="offset" />
          </mxGeometry>
        </mxCell>
        <mxCell id="Wb_vQWrjdFvGsD8hYQh6-229" value="&lt;font style=&quot;font-size: 16px;&quot;&gt;END&lt;/font&gt;" style="ellipse;whiteSpace=wrap;html=1;" parent="1" vertex="1">
          <mxGeometry x="2020" y="890" width="90" height="60" as="geometry" />
        </mxCell>
        <mxCell id="Wb_vQWrjdFvGsD8hYQh6-232" style="edgeStyle=orthogonalEdgeStyle;rounded=0;orthogonalLoop=1;jettySize=auto;html=1;entryX=1;entryY=0.5;entryDx=0;entryDy=0;" parent="1" source="Wb_vQWrjdFvGsD8hYQh6-231" target="Wb_vQWrjdFvGsD8hYQh6-229" edge="1">
          <mxGeometry relative="1" as="geometry" />
        </mxCell>
        <mxCell id="Wb_vQWrjdFvGsD8hYQh6-231" value="Ctrl + C" style="shape=umlActor;verticalLabelPosition=bottom;verticalAlign=top;html=1;outlineConnect=0;" parent="1" vertex="1">
          <mxGeometry x="2290" y="890" width="30" height="60" as="geometry" />
        </mxCell>
        <mxCell id="m0a015RU4agY2CrLpM0k-2" value="" style="endArrow=classic;html=1;rounded=0;exitX=0.5;exitY=0;exitDx=0;exitDy=0;" edge="1" parent="1" source="Wb_vQWrjdFvGsD8hYQh6-119">
          <mxGeometry width="50" height="50" relative="1" as="geometry">
            <mxPoint x="1640" y="790" as="sourcePoint" />
            <mxPoint x="2013" y="359" as="targetPoint" />
            <Array as="points">
              <mxPoint x="2013" y="800" />
            </Array>
          </mxGeometry>
        </mxCell>
        <mxCell id="m0a015RU4agY2CrLpM0k-7" value="R" style="edgeLabel;html=1;align=center;verticalAlign=middle;resizable=0;points=[];fontSize=15;" vertex="1" connectable="0" parent="1">
          <mxGeometry x="1915.000909090909" y="799.995238095238" as="geometry" />
        </mxCell>
        <mxCell id="m0a015RU4agY2CrLpM0k-8" value="" style="endArrow=classic;html=1;rounded=0;exitX=0;exitY=0;exitDx=0;exitDy=0;entryX=0.25;entryY=1;entryDx=0;entryDy=0;" edge="1" parent="1" source="Wb_vQWrjdFvGsD8hYQh6-119" target="Wb_vQWrjdFvGsD8hYQh6-93">
          <mxGeometry width="50" height="50" relative="1" as="geometry">
            <mxPoint x="1640" y="790" as="sourcePoint" />
            <mxPoint x="1641" y="780" as="targetPoint" />
            <Array as="points">
              <mxPoint x="1560" y="838" />
            </Array>
          </mxGeometry>
        </mxCell>
        <mxCell id="m0a015RU4agY2CrLpM0k-9" value="NONE" style="edgeLabel;html=1;align=center;verticalAlign=middle;resizable=0;points=[];fontSize=15;" vertex="1" connectable="0" parent="1">
          <mxGeometry x="1870.000909090909" y="819.995238095238" as="geometry">
            <mxPoint x="-233" y="13" as="offset" />
          </mxGeometry>
        </mxCell>
        <mxCell id="Wb_vQWrjdFvGsD8hYQh6-237" style="edgeStyle=orthogonalEdgeStyle;rounded=0;orthogonalLoop=1;jettySize=auto;html=1;exitX=0.118;exitY=0.018;exitDx=0;exitDy=0;exitPerimeter=0;entryX=0;entryY=0.5;entryDx=0;entryDy=0;" parent="1" source="Wb_vQWrjdFvGsD8hYQh6-142" target="Wb_vQWrjdFvGsD8hYQh6-93" edge="1">
          <mxGeometry relative="1" as="geometry">
            <Array as="points">
              <mxPoint x="1421" y="929" />
              <mxPoint x="1330" y="929" />
              <mxPoint x="1330" y="624" />
            </Array>
          </mxGeometry>
        </mxCell>
        <mxCell id="m0a015RU4agY2CrLpM0k-13" value="&lt;span style=&quot;background-color: light-dark(#ffffff, var(--ge-dark-color, #121212));&quot;&gt;Lab1 Simulation&lt;/span&gt;" style="rounded=1;whiteSpace=wrap;html=1;fillColor=#f5f5f5;strokeColor=#666666;horizontal=0;verticalAlign=top;fontSize=21;fontColor=#333333;" vertex="1" parent="1">
          <mxGeometry x="2290" y="60" width="289" height="310" as="geometry" />
        </mxCell>
        <mxCell id="m0a015RU4agY2CrLpM0k-16" style="edgeStyle=orthogonalEdgeStyle;rounded=0;orthogonalLoop=1;jettySize=auto;html=1;entryX=0.75;entryY=0;entryDx=0;entryDy=0;" edge="1" parent="1" source="m0a015RU4agY2CrLpM0k-15" target="Wb_vQWrjdFvGsD8hYQh6-6">
          <mxGeometry relative="1" as="geometry">
            <Array as="points">
              <mxPoint x="2220" y="95" />
              <mxPoint x="2220" y="30" />
              <mxPoint x="1925" y="30" />
            </Array>
          </mxGeometry>
        </mxCell>
        <mxCell id="m0a015RU4agY2CrLpM0k-15" value="&lt;p class=&quot;p1&quot;&gt;&lt;b&gt;Digital_Twin()&lt;/b&gt;&lt;/p&gt;" style="rounded=1;whiteSpace=wrap;html=1;" vertex="1" parent="1">
          <mxGeometry x="2399" y="72.5" width="120" height="45" as="geometry" />
        </mxCell>
        <mxCell id="m0a015RU4agY2CrLpM0k-17" value="&lt;span style=&quot;background-color: light-dark(#ffffff, var(--ge-dark-color, #121212));&quot;&gt;Main Loop&lt;/span&gt;" style="rounded=1;whiteSpace=wrap;html=1;horizontal=0;verticalAlign=top;fontSize=21;" vertex="1" parent="1">
          <mxGeometry x="2339" y="130" width="210" height="220" as="geometry" />
        </mxCell>
        <mxCell id="m0a015RU4agY2CrLpM0k-18" style="edgeStyle=orthogonalEdgeStyle;rounded=0;orthogonalLoop=1;jettySize=auto;html=1;entryX=0.081;entryY=0.005;entryDx=0;entryDy=0;entryPerimeter=0;" edge="1" parent="1" source="Wb_vQWrjdFvGsD8hYQh6-6" target="m0a015RU4agY2CrLpM0k-17">
          <mxGeometry relative="1" as="geometry">
            <Array as="points">
              <mxPoint x="2190" y="205" />
              <mxPoint x="2190" y="131" />
            </Array>
          </mxGeometry>
        </mxCell>
        <mxCell id="m0a015RU4agY2CrLpM0k-21" style="edgeStyle=orthogonalEdgeStyle;rounded=0;orthogonalLoop=1;jettySize=auto;html=1;entryX=0.75;entryY=0;entryDx=0;entryDy=0;exitX=0;exitY=0.5;exitDx=0;exitDy=0;" edge="1" parent="1" source="m0a015RU4agY2CrLpM0k-19" target="Wb_vQWrjdFvGsD8hYQh6-93">
          <mxGeometry relative="1" as="geometry">
            <Array as="points">
              <mxPoint x="2240" y="162" />
              <mxPoint x="2240" y="400" />
              <mxPoint x="1811" y="400" />
              <mxPoint x="1811" y="469" />
            </Array>
          </mxGeometry>
        </mxCell>
        <mxCell id="m0a015RU4agY2CrLpM0k-19" value="&lt;p class=&quot;p1&quot;&gt;&lt;b&gt;Digital_Twin_step()&lt;/b&gt;&lt;/p&gt;" style="rounded=1;whiteSpace=wrap;html=1;" vertex="1" parent="1">
          <mxGeometry x="2379" y="140" width="140" height="45" as="geometry" />
        </mxCell>
        <mxCell id="m0a015RU4agY2CrLpM0k-37" style="edgeStyle=orthogonalEdgeStyle;rounded=0;orthogonalLoop=1;jettySize=auto;html=1;entryX=1;entryY=0.25;entryDx=0;entryDy=0;exitX=1;exitY=0.5;exitDx=0;exitDy=0;" edge="1" parent="1" source="m0a015RU4agY2CrLpM0k-22" target="Wb_vQWrjdFvGsD8hYQh6-69">
          <mxGeometry relative="1" as="geometry" />
        </mxCell>
        <mxCell id="m0a015RU4agY2CrLpM0k-22" value="&lt;p class=&quot;p1&quot;&gt;&lt;b&gt;Digital_Twin_render()&lt;/b&gt;&lt;/p&gt;" style="rounded=1;whiteSpace=wrap;html=1;" vertex="1" parent="1">
          <mxGeometry x="2379" y="207.5" width="140" height="45" as="geometry" />
        </mxCell>
        <mxCell id="m0a015RU4agY2CrLpM0k-25" value="" style="edgeStyle=orthogonalEdgeStyle;rounded=0;orthogonalLoop=1;jettySize=auto;html=1;" edge="1" parent="1" source="Wb_vQWrjdFvGsD8hYQh6-93" target="Wb_vQWrjdFvGsD8hYQh6-69">
          <mxGeometry relative="1" as="geometry" />
        </mxCell>
        <mxCell id="m0a015RU4agY2CrLpM0k-34" value="" style="endArrow=classic;html=1;rounded=0;exitX=0;exitY=0.5;exitDx=0;exitDy=0;entryX=1;entryY=0;entryDx=0;entryDy=0;" edge="1" parent="1" source="m0a015RU4agY2CrLpM0k-26" target="Wb_vQWrjdFvGsD8hYQh6-119">
          <mxGeometry width="50" height="50" relative="1" as="geometry">
            <mxPoint x="1790" y="680" as="sourcePoint" />
            <mxPoint x="1840" y="630" as="targetPoint" />
            <Array as="points" />
          </mxGeometry>
        </mxCell>
        <mxCell id="m0a015RU4agY2CrLpM0k-40" value="" style="endArrow=classic;html=1;rounded=0;exitX=0.113;exitY=1.004;exitDx=0;exitDy=0;exitPerimeter=0;" edge="1" parent="1" source="m0a015RU4agY2CrLpM0k-42" target="Wb_vQWrjdFvGsD8hYQh6-119">
          <mxGeometry width="50" height="50" relative="1" as="geometry">
            <mxPoint x="1790" y="420" as="sourcePoint" />
            <mxPoint x="1840" y="370" as="targetPoint" />
            <Array as="points">
              <mxPoint x="2395" y="875" />
            </Array>
          </mxGeometry>
        </mxCell>
        <mxCell id="m0a015RU4agY2CrLpM0k-42" value="&lt;p class=&quot;p1&quot;&gt;&lt;b&gt;pygame eventt()&lt;/b&gt;&lt;/p&gt;" style="rounded=1;whiteSpace=wrap;html=1;" vertex="1" parent="1">
          <mxGeometry x="2379" y="280" width="140" height="45" as="geometry" />
        </mxCell>
        <mxCell id="m0a015RU4agY2CrLpM0k-44" value="&lt;font style=&quot;font-size: 18px;&quot;&gt;Shows on Screen&lt;/font&gt;" style="endArrow=classic;html=1;rounded=0;strokeWidth=5;fontSize=25;fillColor=#eeeeee;strokeColor=light-dark(#932ed6, #004a4a);exitX=0.996;exitY=0.524;exitDx=0;exitDy=0;exitPerimeter=0;" edge="1" parent="1" source="Wb_vQWrjdFvGsD8hYQh6-69">
          <mxGeometry x="-0.1034" width="50" height="50" relative="1" as="geometry">
            <mxPoint x="2330" y="620" as="sourcePoint" />
            <mxPoint x="2500" y="620" as="targetPoint" />
            <mxPoint x="-1" as="offset" />
          </mxGeometry>
        </mxCell>
        <mxCell id="m0a015RU4agY2CrLpM0k-47" value="updated lists" style="edgeLabel;html=1;align=center;verticalAlign=middle;resizable=0;points=[];fontSize=15;" vertex="1" connectable="0" parent="1">
          <mxGeometry x="1339.9988235294122" y="800.0016779457034" as="geometry" />
        </mxCell>
      </root>
    </mxGraphModel>
  </diagram>
</mxfile>
